<?xml version="1.0" standalone="no"?>
<!DOCTYPE svg PUBLIC "-//W3C//DTD SVG 20010904//EN"
 "http://www.w3.org/TR/2001/REC-SVG-20010904/DTD/svg10.dtd">
<svg version="1.0" xmlns="http://www.w3.org/2000/svg"
 width="280.000000pt" height="280.000000pt" viewBox="0 0 280.000000 280.000000"
 preserveAspectRatio="xMidYMid meet">
<metadata>
Created by potrace 1.14, written by Peter Selinger 2001-2017
</metadata>
<g transform="translate(0.000000,280.000000) scale(0.100000,-0.100000)"
fill="#000000" stroke="none">
<path d="M1349 2763 c-25 -16 -67 -39 -94 -53 -28 -13 -52 -27 -55 -30 -10
-12 -128 -80 -138 -80 -6 0 -12 -3 -14 -7 -1 -5 -21 -17 -43 -28 -22 -11 -65
-36 -95 -56 -30 -21 -74 -45 -97 -54 -24 -10 -43 -21 -43 -26 0 -5 -6 -9 -12
-10 -7 0 -40 -18 -73 -39 -33 -22 -87 -53 -120 -69 -33 -17 -91 -50 -130 -75
-38 -25 -107 -64 -153 -87 -62 -32 -82 -47 -83 -63 0 -12 -1 -326 -1 -699 -1
-571 1 -680 13 -692 8 -8 61 -40 119 -71 58 -31 123 -69 145 -84 22 -15 63
-39 90 -52 28 -14 93 -51 145 -83 52 -31 105 -61 118 -66 12 -5 53 -28 90 -52
37 -24 108 -65 157 -92 50 -26 104 -58 120 -71 17 -12 53 -33 80 -46 28 -13
66 -34 85 -46 33 -21 67 -21 80 -1 3 4 35 22 70 40 36 17 90 48 120 68 30 20
84 52 120 70 36 19 96 54 134 78 68 44 104 62 118 59 3 0 17 8 30 20 24 21
134 88 223 134 48 25 158 91 181 107 5 4 45 26 87 47 57 30 77 45 78 60 0 12
1 326 1 698 1 522 -2 681 -11 692 -7 8 -43 30 -79 49 -37 18 -98 53 -137 77
-126 77 -135 82 -135 73 0 -4 -4 -3 -8 3 -4 6 -19 17 -34 25 -15 8 -65 38
-112 67 -47 28 -89 52 -94 52 -5 0 -43 21 -83 48 -41 26 -99 60 -129 76 -67
35 -173 98 -180 106 -3 3 -32 19 -65 35 -33 16 -74 40 -91 52 -39 29 -41 29
-95 -4z"/>
</g>
</svg>
